<svg width="84" height="84" viewBox="0 0 84 84" fill="none" xmlns="http://www.w3.org/2000/svg">
<circle cx="42" cy="42" r="41" fill="url(#paint0_linear_18_3298)" stroke="url(#paint1_linear_18_3298)" stroke-width="2"/>
<path fill-rule="evenodd" clip-rule="evenodd" d="M40.5858 20.5858C41.3668 19.8047 42.6332 19.8047 43.4142 20.5858L48.8284 26H56C57.1046 26 58 26.8954 58 28V35.1716L63.4142 40.5858C64.1953 41.3668 64.1953 42.6332 63.4142 43.4142L58 48.8284V56C58 57.1046 57.1046 58 56 58H48.8284L43.4142 63.4142C42.6332 64.1953 41.3668 64.1953 40.5858 63.4142L35.1716 58H28C26.8954 58 26 57.1046 26 56V48.8284L20.5858 43.4142C19.8047 42.6332 19.8047 41.3668 20.5858 40.5858L26 35.1716V28C26 26.8954 26.8954 26 28 26H35.1716L40.5858 20.5858ZM42 24.8284L37.4142 29.4142C37.0391 29.7893 36.5304 30 36 30H30V36C30 36.5304 29.7893 37.0391 29.4142 37.4142L24.8284 42L29.4142 46.5858C29.7893 46.9609 30 47.4696 30 48V54H36C36.5304 54 37.0391 54.2107 37.4142 54.5858L42 59.1716L46.5858 54.5858C46.9609 54.2107 47.4696 54 48 54H54V48C54 47.4696 54.2107 46.9609 54.5858 46.5858L59.1716 42L54.5858 37.4142C54.2107 37.0391 54 36.5304 54 36V30H48C47.4696 30 46.9609 29.7893 46.5858 29.4142L42 24.8284Z" fill="white"/>
<path d="M42 48C45.3137 48 48 45.3137 48 42C48 38.6863 45.3137 36 42 36C38.6863 36 36 38.6863 36 42C36 45.3137 38.6863 48 42 48Z" stroke="white" stroke-width="4" stroke-linejoin="round"/>
<defs>
<linearGradient id="paint0_linear_18_3298" x1="7.5" y1="85.5" x2="7.5" y2="2" gradientUnits="userSpaceOnUse">
<stop stop-color="#4D5068"/>
<stop offset="1" stop-color="#31354A"/>
</linearGradient>
<linearGradient id="paint1_linear_18_3298" x1="42" y1="2" x2="42" y2="82" gradientUnits="userSpaceOnUse">
<stop stop-color="#4B506C"/>
<stop offset="0.489583" stop-color="#3F4259"/>
<stop offset="1" stop-color="#252839"/>
</linearGradient>
</defs>
</svg>
