<svg width="36" height="34" viewBox="0 0 36 34" fill="none" xmlns="http://www.w3.org/2000/svg">
<mask id="path-1-outside-1_16_1272" maskUnits="userSpaceOnUse" x="-0.00195312" y="0.0331421" width="36" height="34" fill="black">
<rect fill="white" x="-0.00195312" y="0.0331421" width="36" height="34"/>
<path fill-rule="evenodd" clip-rule="evenodd" d="M6.50244 19.2465C6.48833 19.2396 6.47442 19.2323 6.46071 19.2246C6.34474 19.1592 6.24771 19.0648 6.17912 18.9506C5.30984 17.5078 4.85149 15.8548 4.85362 14.1704C4.85643 11.7104 5.83488 9.35206 7.57432 7.61262C9.31376 5.87318 11.6721 4.89473 14.1321 4.89192C17.6943 4.89192 20.9852 6.96951 22.5147 10.1921C22.9429 10.304 23.3631 10.4481 23.7716 10.6236C24.8747 11.0973 25.8703 11.7899 26.698 12.6595C27.5257 13.529 28.1684 14.5575 28.5872 15.6825C29.006 16.8076 29.1922 18.006 29.1346 19.2051C32.3497 19.6039 34.9307 22.5115 34.9307 25.9047C34.9286 29.561 31.9277 32.6531 28.3732 32.6531H7.55341C3.99897 32.6531 0.998047 29.561 0.998047 25.9026C0.998047 22.6156 3.42645 19.7824 6.50244 19.2465ZM20.5878 9.90907C19.9842 8.99905 19.1934 8.22286 18.2636 7.63496C17.027 6.85314 15.595 6.43604 14.1321 6.43162C12.0813 6.43386 10.115 7.2494 8.66468 8.69936C7.21432 10.1493 6.39825 12.1153 6.39544 14.1661C6.39544 15.4593 6.71639 16.7222 7.32724 17.8484C7.57543 17.4076 7.90223 17.0114 8.29538 16.6809C9.05934 16.0387 10.025 15.686 11.023 15.6846C11.3305 15.6846 11.6359 15.7186 11.935 15.7886C12.5473 14.0655 13.6785 12.5744 15.1729 11.5205C16.6674 10.4666 18.4516 9.90167 20.2803 9.90335C20.3829 9.90348 20.4854 9.90539 20.5878 9.90907ZM13.6964 3.12051C13.8411 3.26562 14.0374 3.34742 14.2424 3.34799C14.3439 3.34827 14.4445 3.32841 14.5383 3.28956C14.6321 3.2507 14.7173 3.19363 14.7889 3.12163C14.8605 3.04964 14.9171 2.96416 14.9554 2.87014C14.9938 2.77612 15.0131 2.67543 15.0122 2.5739V1.80405C15.0122 1.59959 14.931 1.40351 14.7864 1.25894C14.6419 1.11436 14.4458 1.03314 14.2413 1.03314C14.0369 1.03314 13.8408 1.11436 13.6962 1.25894C13.5516 1.40351 13.4704 1.59959 13.4704 1.80405V2.5739C13.4704 2.77883 13.5517 2.9754 13.6964 3.12051ZM1.9036 14.9148H2.67557C2.88003 14.9148 3.07611 14.8336 3.22069 14.689C3.36526 14.5444 3.44648 14.3483 3.44648 14.1439C3.44648 13.9394 3.36526 13.7433 3.22069 13.5988C3.07611 13.4542 2.88003 13.373 2.67557 13.373H1.9036C1.79896 13.3675 1.6943 13.3833 1.596 13.4196C1.49769 13.4559 1.40779 13.5118 1.33178 13.5839C1.25578 13.656 1.19525 13.7429 1.15388 13.8391C1.11252 13.9354 1.09119 14.0391 1.09119 14.1439C1.09119 14.2487 1.11252 14.3523 1.15388 14.4486C1.19525 14.5449 1.25578 14.6317 1.33178 14.7039C1.40779 14.776 1.49769 14.8319 1.596 14.8681C1.6943 14.9044 1.79896 14.9203 1.9036 14.9148ZM5.32806 6.37314C5.42165 6.4121 5.52209 6.43199 5.62347 6.43162C5.77593 6.43189 5.92504 6.38688 6.05189 6.30231C6.17874 6.21773 6.27762 6.0974 6.336 5.95656C6.39438 5.81572 6.40963 5.66072 6.37981 5.51121C6.34999 5.36169 6.27645 5.2244 6.16852 5.11673L5.39655 4.34264C5.24825 4.21683 5.05803 4.15145 4.86372 4.1595C4.66942 4.16755 4.48526 4.24845 4.34788 4.38609C4.2105 4.52374 4.12996 4.70806 4.12229 4.90238C4.11461 5.0967 4.18036 5.28679 4.30646 5.43484L5.07843 6.20469C5.14959 6.2769 5.23446 6.33417 5.32806 6.37314ZM22.2941 6.37381C22.3878 6.41281 22.4884 6.43247 22.5898 6.43162C22.6911 6.43227 22.7915 6.41231 22.8848 6.37293C22.9782 6.33355 23.0625 6.27559 23.1327 6.20257L23.9068 5.43272C24.0507 5.28739 24.1314 5.09114 24.1314 4.88662C24.1314 4.6821 24.0507 4.48585 23.9068 4.34052C23.7615 4.19663 23.5652 4.11592 23.3607 4.11592C23.1562 4.11592 22.9599 4.19663 22.8146 4.34052L22.0448 5.11461C21.9728 5.18597 21.9157 5.27088 21.8767 5.36443C21.8378 5.45797 21.8177 5.55831 21.8177 5.65965C21.8177 5.76099 21.8378 5.86132 21.8767 5.95487C21.9157 6.04842 21.9728 6.13332 22.0448 6.20469C22.1156 6.27729 22.2004 6.33481 22.2941 6.37381ZM2.53986 25.9026C2.53986 23.0841 4.83456 20.6982 7.55341 20.6982V20.7003H8.32326V19.9283C8.32326 18.4417 9.53423 17.2307 11.0209 17.2307C11.4013 17.232 11.7771 17.3137 12.1237 17.4703L12.9593 17.8436L13.1862 16.9529C13.5875 15.3765 14.5025 13.9788 15.7869 12.9806C17.0712 11.9824 18.6515 11.4406 20.2782 11.4409C22.2203 11.4443 24.0818 12.2174 25.4549 13.5909C26.828 14.9644 27.6006 16.8262 27.6034 18.7683C27.6034 19.08 27.5758 19.4172 27.5207 19.8265L27.3913 20.7067H28.2799C28.3329 20.7067 28.3859 20.7045 28.3732 20.6982C31.0921 20.6982 33.3868 23.0841 33.3868 25.9026C33.3868 28.7254 31.0921 31.1113 28.3732 31.1113H7.55341C4.83668 31.1113 2.53986 28.7254 2.53986 25.9026Z"/>
</mask>
<path fill-rule="evenodd" clip-rule="evenodd" d="M6.50244 19.2465C6.48833 19.2396 6.47442 19.2323 6.46071 19.2246C6.34474 19.1592 6.24771 19.0648 6.17912 18.9506C5.30984 17.5078 4.85149 15.8548 4.85362 14.1704C4.85643 11.7104 5.83488 9.35206 7.57432 7.61262C9.31376 5.87318 11.6721 4.89473 14.1321 4.89192C17.6943 4.89192 20.9852 6.96951 22.5147 10.1921C22.9429 10.304 23.3631 10.4481 23.7716 10.6236C24.8747 11.0973 25.8703 11.7899 26.698 12.6595C27.5257 13.529 28.1684 14.5575 28.5872 15.6825C29.006 16.8076 29.1922 18.006 29.1346 19.2051C32.3497 19.6039 34.9307 22.5115 34.9307 25.9047C34.9286 29.561 31.9277 32.6531 28.3732 32.6531H7.55341C3.99897 32.6531 0.998047 29.561 0.998047 25.9026C0.998047 22.6156 3.42645 19.7824 6.50244 19.2465ZM20.5878 9.90907C19.9842 8.99905 19.1934 8.22286 18.2636 7.63496C17.027 6.85314 15.595 6.43604 14.1321 6.43162C12.0813 6.43386 10.115 7.2494 8.66468 8.69936C7.21432 10.1493 6.39825 12.1153 6.39544 14.1661C6.39544 15.4593 6.71639 16.7222 7.32724 17.8484C7.57543 17.4076 7.90223 17.0114 8.29538 16.6809C9.05934 16.0387 10.025 15.686 11.023 15.6846C11.3305 15.6846 11.6359 15.7186 11.935 15.7886C12.5473 14.0655 13.6785 12.5744 15.1729 11.5205C16.6674 10.4666 18.4516 9.90167 20.2803 9.90335C20.3829 9.90348 20.4854 9.90539 20.5878 9.90907ZM13.6964 3.12051C13.8411 3.26562 14.0374 3.34742 14.2424 3.34799C14.3439 3.34827 14.4445 3.32841 14.5383 3.28956C14.6321 3.2507 14.7173 3.19363 14.7889 3.12163C14.8605 3.04964 14.9171 2.96416 14.9554 2.87014C14.9938 2.77612 15.0131 2.67543 15.0122 2.5739V1.80405C15.0122 1.59959 14.931 1.40351 14.7864 1.25894C14.6419 1.11436 14.4458 1.03314 14.2413 1.03314C14.0369 1.03314 13.8408 1.11436 13.6962 1.25894C13.5516 1.40351 13.4704 1.59959 13.4704 1.80405V2.5739C13.4704 2.77883 13.5517 2.9754 13.6964 3.12051ZM1.9036 14.9148H2.67557C2.88003 14.9148 3.07611 14.8336 3.22069 14.689C3.36526 14.5444 3.44648 14.3483 3.44648 14.1439C3.44648 13.9394 3.36526 13.7433 3.22069 13.5988C3.07611 13.4542 2.88003 13.373 2.67557 13.373H1.9036C1.79896 13.3675 1.6943 13.3833 1.596 13.4196C1.49769 13.4559 1.40779 13.5118 1.33178 13.5839C1.25578 13.656 1.19525 13.7429 1.15388 13.8391C1.11252 13.9354 1.09119 14.0391 1.09119 14.1439C1.09119 14.2487 1.11252 14.3523 1.15388 14.4486C1.19525 14.5449 1.25578 14.6317 1.33178 14.7039C1.40779 14.776 1.49769 14.8319 1.596 14.8681C1.6943 14.9044 1.79896 14.9203 1.9036 14.9148ZM5.32806 6.37314C5.42165 6.4121 5.52209 6.43199 5.62347 6.43162C5.77593 6.43189 5.92504 6.38688 6.05189 6.30231C6.17874 6.21773 6.27762 6.0974 6.336 5.95656C6.39438 5.81572 6.40963 5.66072 6.37981 5.51121C6.34999 5.36169 6.27645 5.2244 6.16852 5.11673L5.39655 4.34264C5.24825 4.21683 5.05803 4.15145 4.86372 4.1595C4.66942 4.16755 4.48526 4.24845 4.34788 4.38609C4.2105 4.52374 4.12996 4.70806 4.12229 4.90238C4.11461 5.0967 4.18036 5.28679 4.30646 5.43484L5.07843 6.20469C5.14959 6.2769 5.23446 6.33417 5.32806 6.37314ZM22.2941 6.37381C22.3878 6.41281 22.4884 6.43247 22.5898 6.43162C22.6911 6.43227 22.7915 6.41231 22.8848 6.37293C22.9782 6.33355 23.0625 6.27559 23.1327 6.20257L23.9068 5.43272C24.0507 5.28739 24.1314 5.09114 24.1314 4.88662C24.1314 4.6821 24.0507 4.48585 23.9068 4.34052C23.7615 4.19663 23.5652 4.11592 23.3607 4.11592C23.1562 4.11592 22.9599 4.19663 22.8146 4.34052L22.0448 5.11461C21.9728 5.18597 21.9157 5.27088 21.8767 5.36443C21.8378 5.45797 21.8177 5.55831 21.8177 5.65965C21.8177 5.76099 21.8378 5.86132 21.8767 5.95487C21.9157 6.04842 21.9728 6.13332 22.0448 6.20469C22.1156 6.27729 22.2004 6.33481 22.2941 6.37381ZM2.53986 25.9026C2.53986 23.0841 4.83456 20.6982 7.55341 20.6982V20.7003H8.32326V19.9283C8.32326 18.4417 9.53423 17.2307 11.0209 17.2307C11.4013 17.232 11.7771 17.3137 12.1237 17.4703L12.9593 17.8436L13.1862 16.9529C13.5875 15.3765 14.5025 13.9788 15.7869 12.9806C17.0712 11.9824 18.6515 11.4406 20.2782 11.4409C22.2203 11.4443 24.0818 12.2174 25.4549 13.5909C26.828 14.9644 27.6006 16.8262 27.6034 18.7683C27.6034 19.08 27.5758 19.4172 27.5207 19.8265L27.3913 20.7067H28.2799C28.3329 20.7067 28.3859 20.7045 28.3732 20.6982C31.0921 20.6982 33.3868 23.0841 33.3868 25.9026C33.3868 28.7254 31.0921 31.1113 28.3732 31.1113H7.55341C4.83668 31.1113 2.53986 28.7254 2.53986 25.9026Z" fill="url(#paint0_linear_16_1272)"/>
<path d="M6.50244 19.2465L6.58826 19.739C6.80196 19.7018 6.96728 19.531 6.99755 19.3162C7.02781 19.1014 6.91611 18.8916 6.72101 18.7968L6.50244 19.2465ZM6.46071 19.2246L6.70639 18.7891L6.70637 18.7891L6.46071 19.2246ZM6.17912 18.9506L6.60767 18.6931L6.6074 18.6926L6.17912 18.9506ZM4.85362 14.1704L5.35362 14.171V14.171L4.85362 14.1704ZM14.1321 4.89192V4.39192L14.1315 4.39192L14.1321 4.89192ZM22.5147 10.1921L22.063 10.4065C22.1263 10.5399 22.2454 10.6385 22.3882 10.6758L22.5147 10.1921ZM23.7716 10.6236L23.9689 10.1642V10.1642L23.7716 10.6236ZM26.698 12.6595L26.3358 13.0042V13.0042L26.698 12.6595ZM28.5872 15.6825L29.0558 15.5081L28.5872 15.6825ZM29.1346 19.2051L28.6352 19.1811C28.6226 19.4424 28.8135 19.6692 29.0731 19.7013L29.1346 19.2051ZM34.9307 25.9047L35.4307 25.905V25.9047H34.9307ZM20.5878 9.90907L20.5699 10.4087C20.7572 10.4155 20.9325 10.3169 21.0241 10.1534C21.1156 9.98987 21.1081 9.78888 21.0045 9.6327L20.5878 9.90907ZM18.2636 7.63496L17.9963 8.05757L18.2636 7.63496ZM14.1321 6.43162L14.1336 5.93161L14.1315 5.93162L14.1321 6.43162ZM8.66468 8.69936L8.31117 8.34576L8.66468 8.69936ZM6.39544 14.1661L5.89544 14.1655V14.1661H6.39544ZM7.32724 17.8484L6.88772 18.0868C6.97448 18.2468 7.1413 18.347 7.32328 18.3484C7.50525 18.3499 7.67364 18.2523 7.76293 18.0938L7.32724 17.8484ZM8.29538 16.6809L8.61711 17.0636H8.61711L8.29538 16.6809ZM11.023 15.6846V15.1846H11.0224L11.023 15.6846ZM11.935 15.7886L11.821 16.2754C12.0689 16.3334 12.3208 16.1959 12.4061 15.956L11.935 15.7886ZM15.1729 11.5205L15.4611 11.9291L15.1729 11.5205ZM20.2803 9.90335L20.2809 9.40335H20.2807L20.2803 9.90335ZM14.2424 3.34799L14.2438 2.84799H14.2437L14.2424 3.34799ZM13.6964 3.12051L14.0504 2.76744V2.76744L13.6964 3.12051ZM14.5383 3.28956L14.347 2.82761L14.347 2.82761L14.5383 3.28956ZM14.7889 3.12163L15.1434 3.47421L15.1434 3.47421L14.7889 3.12163ZM15.0122 2.5739H14.5122L14.5122 2.57804L15.0122 2.5739ZM14.7864 1.25894L15.14 0.905382V0.905382L14.7864 1.25894ZM13.6962 1.25894L13.3426 0.905382L13.6962 1.25894ZM13.4704 2.5739L13.9704 2.5739V2.5739H13.4704ZM1.9036 14.9148V14.4148C1.89487 14.4148 1.88613 14.415 1.8774 14.4155L1.9036 14.9148ZM1.9036 13.373L1.8774 13.8723C1.88613 13.8727 1.89487 13.873 1.9036 13.873V13.373ZM1.33178 13.5839L0.987619 13.2212L0.987617 13.2212L1.33178 13.5839ZM1.15388 13.8391L1.61327 14.0365L1.15388 13.8391ZM1.15388 14.4486L1.61327 14.2512L1.15388 14.4486ZM5.62347 6.43162L5.62435 5.93161L5.62165 5.93162L5.62347 6.43162ZM6.05189 6.30231L5.77452 5.88629L5.77452 5.88629L6.05189 6.30231ZM6.336 5.95656L5.87411 5.7651L5.87411 5.7651L6.336 5.95656ZM6.37981 5.51121L6.87016 5.41342L6.37981 5.51121ZM6.16852 5.11673L5.81448 5.4698L5.8154 5.47072L6.16852 5.11673ZM5.39655 4.34264L5.75058 3.98957C5.74079 3.97975 5.73059 3.97033 5.72001 3.96136L5.39655 4.34264ZM4.86372 4.1595L4.84302 3.65993L4.86372 4.1595ZM4.34788 4.38609L3.99398 4.03288L3.99398 4.03288L4.34788 4.38609ZM4.30646 5.43484L3.92581 5.75905C3.9346 5.76936 3.9438 5.77932 3.95339 5.78888L4.30646 5.43484ZM5.07843 6.20469L5.43456 5.85371L5.4315 5.85065L5.07843 6.20469ZM22.5898 6.43162L22.593 5.93157L22.5856 5.93163L22.5898 6.43162ZM23.1327 6.20257L22.7801 5.84796L22.7723 5.85599L23.1327 6.20257ZM23.9068 5.43272L24.2594 5.78726L24.2621 5.7845L23.9068 5.43272ZM23.9068 4.34052L24.2622 3.98872L24.2586 3.9852L23.9068 4.34052ZM22.8146 4.34052L22.4628 3.98519L22.4601 3.98794L22.8146 4.34052ZM22.0448 5.11461L22.3969 5.46959L22.3993 5.46719L22.0448 5.11461ZM22.0448 6.20469L22.4026 5.85537L22.3969 5.84972L22.0448 6.20469ZM7.55341 20.6982H8.05341C8.05341 20.422 7.82956 20.1982 7.55341 20.1982V20.6982ZM7.55341 20.7003H7.05341C7.05341 20.9764 7.27727 21.2003 7.55341 21.2003V20.7003ZM8.32326 20.7003V21.2003C8.5994 21.2003 8.82326 20.9764 8.82326 20.7003H8.32326ZM11.0209 17.2307L11.0226 16.7307H11.0209V17.2307ZM12.1237 17.4703L11.9178 17.926L11.9198 17.9269L12.1237 17.4703ZM12.9593 17.8436L12.7554 18.3001C12.89 18.3603 13.0443 18.3579 13.1771 18.2937C13.3098 18.2295 13.4074 18.1099 13.4438 17.967L12.9593 17.8436ZM13.1862 16.9529L13.6708 17.0763L13.6708 17.0762L13.1862 16.9529ZM15.7869 12.9806L15.48 12.5858L15.7869 12.9806ZM20.2782 11.4409L20.279 10.9409H20.2782L20.2782 11.4409ZM25.4549 13.5909L25.1013 13.9444L25.4549 13.5909ZM27.6034 18.7683H28.1034V18.7675L27.6034 18.7683ZM27.5207 19.8265L28.0154 19.8993L28.0162 19.8933L27.5207 19.8265ZM27.3913 20.7067L26.8966 20.634C26.8755 20.7777 26.9179 20.9235 27.0129 21.0335C27.1079 21.1435 27.246 21.2067 27.3913 21.2067V20.7067ZM28.3732 20.6982V20.1982C28.1413 20.1982 27.9399 20.3576 27.8866 20.5833C27.8333 20.809 27.9422 21.0417 28.1496 21.1454L28.3732 20.6982ZM6.72101 18.7968C6.71603 18.7943 6.71115 18.7918 6.70639 18.7891L6.21504 19.6601C6.23769 19.6728 6.26064 19.6849 6.28386 19.6962L6.72101 18.7968ZM6.70637 18.7891C6.66572 18.7662 6.63171 18.7331 6.60767 18.6931L5.75057 19.2082C5.86372 19.3965 6.02376 19.5522 6.21505 19.6601L6.70637 18.7891ZM6.6074 18.6926C5.78515 17.3279 5.3516 15.7643 5.35362 14.171L4.35362 14.1698C4.35137 15.9453 4.83453 17.6878 5.75084 19.2087L6.6074 18.6926ZM5.35362 14.171C5.35628 11.8434 6.28206 9.61199 7.92788 7.96617L7.22077 7.25907C5.3877 9.09214 4.35658 11.5775 4.35362 14.1698L5.35362 14.171ZM7.92788 7.96617C9.57369 6.32036 11.8051 5.39458 14.1327 5.39192L14.1315 4.39192C11.5392 4.39488 9.05384 5.426 7.22077 7.25907L7.92788 7.96617ZM14.1321 5.39192C17.5014 5.39192 20.6164 7.35848 22.063 10.4065L22.9664 9.97769C21.3541 6.58054 17.8873 4.39192 14.1321 4.39192V5.39192ZM22.3882 10.6758C22.7922 10.7815 23.1888 10.9174 23.5743 11.083L23.9689 10.1642C23.5373 9.97881 23.0935 9.8266 22.6412 9.70834L22.3882 10.6758ZM23.5743 11.083C24.6153 11.5301 25.5547 12.1836 26.3358 13.0042L27.0601 12.3147C26.1858 11.3962 25.1342 10.6646 23.9689 10.1642L23.5743 11.083ZM26.3358 13.0042C27.1169 13.8248 27.7234 14.7953 28.1186 15.857L29.0558 15.5081C28.6134 14.3196 27.9345 13.2333 27.0601 12.3147L26.3358 13.0042ZM28.1186 15.857C28.5139 16.9187 28.6896 18.0496 28.6352 19.1811L29.634 19.2292C29.6949 17.9625 29.4982 16.6966 29.0558 15.5081L28.1186 15.857ZM29.0731 19.7013C32.0319 20.0683 34.4307 22.7579 34.4307 25.9047H35.4307C35.4307 22.265 32.6675 19.1394 29.1961 18.7089L29.0731 19.7013ZM34.4307 25.9044C34.4287 29.2987 31.6378 32.1531 28.3732 32.1531V33.1531C32.2176 33.1531 35.4284 29.8232 35.4307 25.905L34.4307 25.9044ZM28.3732 32.1531H7.55341V33.1531H28.3732V32.1531ZM7.55341 32.1531C4.28892 32.1531 1.49805 29.2988 1.49805 25.9026H0.498047C0.498047 29.8231 3.70901 33.1531 7.55341 33.1531V32.1531ZM1.49805 25.9026C1.49805 22.8562 3.75415 20.2328 6.58826 19.739L6.41662 18.7539C3.09875 19.3319 0.498047 22.3751 0.498047 25.9026H1.49805ZM21.0045 9.6327C20.3621 8.66417 19.5204 7.83806 18.5308 7.21235L17.9963 8.05757C18.8664 8.60766 19.6064 9.33393 20.1711 10.1854L21.0045 9.6327ZM18.5308 7.21235C17.2147 6.38025 15.6906 5.93633 14.1336 5.93162L14.1306 6.93161C15.4994 6.93576 16.8394 7.32603 17.9963 8.05757L18.5308 7.21235ZM14.1315 5.93162C11.9483 5.93401 9.85516 6.80219 8.31117 8.34576L9.01818 9.05296C10.3749 7.69661 12.2142 6.93372 14.1326 6.93162L14.1315 5.93162ZM8.31117 8.34576C6.76719 9.88932 5.89843 11.9822 5.89544 14.1655L6.89544 14.1668C6.89806 12.2484 7.66146 10.4093 9.01818 9.05296L8.31117 8.34576ZM5.89544 14.1661C5.89544 15.5423 6.23706 16.8871 6.88772 18.0868L7.76676 17.6101C7.19573 16.5572 6.89544 15.3763 6.89544 14.1661H5.89544ZM7.76293 18.0938C7.98191 17.7048 8.27024 17.3552 8.61711 17.0636L7.97365 16.2981C7.53423 16.6675 7.16895 17.1105 6.89155 17.6031L7.76293 18.0938ZM8.61711 17.0636C9.29115 16.497 10.1432 16.1858 11.0237 16.1846L11.0224 15.1846C9.90686 15.1861 8.82752 15.5804 7.97365 16.2981L8.61711 17.0636ZM11.023 16.1846C11.2937 16.1846 11.5608 16.2145 11.821 16.2754L12.0489 15.3017C11.7111 15.2226 11.3674 15.1846 11.023 15.1846V16.1846ZM12.4061 15.956C12.9838 14.3302 14.0511 12.9235 15.4611 11.9291L14.8848 11.1119C13.3059 12.2253 12.1108 13.8007 11.4638 15.6211L12.4061 15.956ZM15.4611 11.9291C16.8711 10.9348 18.5545 10.4018 20.2798 10.4034L20.2807 9.40335C18.3487 9.40157 16.4636 9.99846 14.8848 11.1119L15.4611 11.9291ZM20.2797 10.4034C20.3765 10.4035 20.4733 10.4053 20.5699 10.4087L20.6058 9.40939C20.4976 9.4055 20.3893 9.40349 20.2809 9.40335L20.2797 10.4034ZM14.2437 2.84799C14.1712 2.84779 14.1017 2.81882 14.0504 2.76744L13.3423 3.47358C13.5805 3.71242 13.9037 3.84706 14.241 3.84798L14.2437 2.84799ZM14.347 2.82761C14.3143 2.84116 14.2792 2.84809 14.2438 2.84799L14.241 3.84798C14.4086 3.84845 14.5747 3.81566 14.7296 3.7515L14.347 2.82761ZM14.4343 2.76905C14.4094 2.79416 14.3797 2.81406 14.347 2.82761L14.7296 3.7515C14.8845 3.68734 15.0252 3.5931 15.1434 3.47421L14.4343 2.76905ZM14.4924 2.68135C14.4791 2.71414 14.4593 2.74395 14.4343 2.76905L15.1434 3.47421C15.2616 3.35533 15.3551 3.21418 15.4184 3.05893L14.4924 2.68135ZM14.5122 2.57804C14.5125 2.61345 14.5058 2.64857 14.4924 2.68135L15.4184 3.05893C15.4817 2.90367 15.5136 2.7374 15.5122 2.56976L14.5122 2.57804ZM14.5122 1.80405V2.5739H15.5122V1.80405H14.5122ZM14.4329 1.61249C14.4837 1.66329 14.5122 1.7322 14.5122 1.80405H15.5122C15.5122 1.46699 15.3783 1.14372 15.14 0.905382L14.4329 1.61249ZM14.2413 1.53314C14.3132 1.53314 14.3821 1.56168 14.4329 1.61249L15.14 0.905382C14.9016 0.667041 14.5784 0.533142 14.2413 0.533142V1.53314ZM14.0497 1.61249C14.1006 1.56168 14.1695 1.53314 14.2413 1.53314V0.533142C13.9042 0.533142 13.581 0.667041 13.3426 0.905382L14.0497 1.61249ZM13.9704 1.80405C13.9704 1.7322 13.9989 1.66329 14.0497 1.61249L13.3426 0.905382C13.1043 1.14372 12.9704 1.46699 12.9704 1.80405H13.9704ZM13.9704 2.5739V1.80405H12.9704V2.5739H13.9704ZM14.0504 2.76744C13.9992 2.71606 13.9704 2.64646 13.9704 2.5739L12.9704 2.57389C12.9704 2.9112 13.1042 3.23474 13.3423 3.47358L14.0504 2.76744ZM2.67557 14.4148H1.9036V15.4148H2.67557V14.4148ZM2.86713 14.3354C2.81633 14.3862 2.74742 14.4148 2.67557 14.4148V15.4148C3.01263 15.4148 3.3359 15.2809 3.57424 15.0425L2.86713 14.3354ZM2.94648 14.1439C2.94648 14.2157 2.91794 14.2846 2.86713 14.3354L3.57424 15.0425C3.81258 14.8042 3.94648 14.4809 3.94648 14.1439H2.94648ZM2.86713 13.9523C2.91794 14.0031 2.94648 14.072 2.94648 14.1439H3.94648C3.94648 13.8068 3.81258 13.4835 3.57424 13.2452L2.86713 13.9523ZM2.67557 13.873C2.74742 13.873 2.81633 13.9015 2.86713 13.9523L3.57424 13.2452C3.3359 13.0069 3.01264 12.873 2.67557 12.873V13.873ZM1.9036 13.873H2.67557V12.873H1.9036V13.873ZM1.76903 13.8887C1.80367 13.8759 1.84054 13.8703 1.8774 13.8723L1.9298 12.8737C1.75739 12.8646 1.58494 12.8908 1.42296 12.9505L1.76903 13.8887ZM1.67595 13.9466C1.70273 13.9212 1.7344 13.9015 1.76903 13.8887L1.42296 12.9505C1.26098 13.0103 1.11286 13.1024 0.987619 13.2212L1.67595 13.9466ZM1.61327 14.0365C1.62785 14.0026 1.64917 13.972 1.67595 13.9466L0.987617 13.2212C0.862379 13.34 0.762644 13.4831 0.694489 13.6418L1.61327 14.0365ZM1.59119 14.1439C1.59119 14.107 1.5987 14.0704 1.61327 14.0365L0.694489 13.6418C0.626334 13.8004 0.591187 13.9712 0.591187 14.1439H1.59119ZM1.61327 14.2512C1.5987 14.2173 1.59119 14.1808 1.59119 14.1439H0.591187C0.591187 14.3165 0.626334 14.4874 0.694489 14.646L1.61327 14.2512ZM1.67595 14.3412C1.64917 14.3157 1.62785 14.2852 1.61327 14.2512L0.694489 14.646C0.762644 14.8046 0.862379 14.9477 0.987617 15.0666L1.67595 14.3412ZM1.76903 14.399C1.7344 14.3863 1.70273 14.3666 1.67595 14.3412L0.987617 15.0666C1.11286 15.1854 1.26098 15.2775 1.42296 15.3372L1.76903 14.399ZM1.8774 14.4155C1.84054 14.4174 1.80367 14.4118 1.76903 14.399L1.42296 15.3372C1.58494 15.397 1.75739 15.4231 1.9298 15.4141L1.8774 14.4155ZM5.62165 5.93162C5.58685 5.93175 5.55237 5.92492 5.52024 5.91154L5.13588 6.83473C5.29094 6.89929 5.45733 6.93223 5.62529 6.93161L5.62165 5.93162ZM5.77452 5.88629C5.73006 5.91594 5.6778 5.93171 5.62435 5.93162L5.62259 6.93162C5.87406 6.93206 6.12001 6.85783 6.32925 6.71832L5.77452 5.88629ZM5.87411 5.7651C5.85365 5.81447 5.81899 5.85665 5.77452 5.88629L6.32925 6.71832C6.53849 6.57882 6.7016 6.38033 6.79789 6.14802L5.87411 5.7651ZM5.88947 5.60899C5.89992 5.6614 5.89458 5.71573 5.87411 5.7651L6.79789 6.14802C6.89419 5.91571 6.91934 5.66004 6.87016 5.41342L5.88947 5.60899ZM5.8154 5.47072C5.85324 5.50846 5.87902 5.55659 5.88947 5.60899L6.87016 5.41342C6.82097 5.1668 6.69967 4.94033 6.52163 4.76273L5.8154 5.47072ZM5.04251 4.69571L5.81448 5.46979L6.52255 4.76366L5.75058 3.98957L5.04251 4.69571ZM4.88442 4.65907C4.95322 4.65622 5.02058 4.67937 5.07309 4.72392L5.72001 3.96136C5.47592 3.75429 5.16284 3.64668 4.84302 3.65993L4.88442 4.65907ZM4.70177 4.7393C4.75042 4.69056 4.81562 4.66192 4.88442 4.65907L4.84302 3.65993C4.52321 3.67318 4.2201 3.80633 3.99398 4.03288L4.70177 4.7393ZM4.6219 4.92211C4.62461 4.8533 4.65313 4.78804 4.70177 4.7393L3.99398 4.03288C3.76786 4.25944 3.63531 4.56281 3.62268 4.88265L4.6219 4.92211ZM4.68711 5.11064C4.64246 5.05822 4.61918 4.99091 4.6219 4.92211L3.62268 4.88265C3.61004 5.20249 3.71826 5.51536 3.92581 5.75905L4.68711 5.11064ZM5.4315 5.85065L4.65953 5.08081L3.95339 5.78888L4.72536 6.55873L5.4315 5.85065ZM5.52024 5.91154C5.48811 5.89817 5.45897 5.87851 5.43455 5.85372L4.72231 6.55566C4.84021 6.67529 4.98082 6.77017 5.13588 6.83473L5.52024 5.91154ZM22.5856 5.93163C22.5515 5.93192 22.5177 5.92532 22.4863 5.91222L22.1019 6.8354C22.2578 6.90029 22.4252 6.93301 22.594 6.9316L22.5856 5.93163ZM22.6905 5.91225C22.6596 5.92525 22.6265 5.93184 22.593 5.93163L22.5866 6.93161C22.7557 6.9327 22.9233 6.89936 23.0792 6.83361L22.6905 5.91225ZM22.7723 5.85599C22.7491 5.8801 22.7213 5.89924 22.6905 5.91225L23.0792 6.83361C23.235 6.76786 23.3759 6.67108 23.4931 6.54915L22.7723 5.85599ZM23.5542 5.0782L22.7801 5.84805L23.4853 6.5571L24.2594 5.78725L23.5542 5.0782ZM23.6314 4.88662C23.6314 4.95939 23.6027 5.02923 23.5515 5.08095L24.2621 5.7845C24.4987 5.54554 24.6314 5.22288 24.6314 4.88662H23.6314ZM23.5515 4.69229C23.6027 4.74401 23.6314 4.81385 23.6314 4.88662H24.6314C24.6314 4.55036 24.4987 4.2277 24.2621 3.98874L23.5515 4.69229ZM23.3607 4.61592C23.4335 4.61592 23.5033 4.64464 23.555 4.69584L24.2586 3.9852C24.0196 3.74862 23.697 3.61592 23.3607 3.61592V4.61592ZM23.1664 4.69584C23.2181 4.64464 23.2879 4.61592 23.3607 4.61592V3.61592C23.0245 3.61592 22.7018 3.74862 22.4628 3.9852L23.1664 4.69584ZM22.3993 5.46719L23.1691 4.6931L22.4601 3.98794L21.6902 4.76202L22.3993 5.46719ZM22.3383 5.5567C22.3519 5.52408 22.3718 5.49447 22.3969 5.46958L21.6926 4.75963C21.5738 4.87748 21.4795 5.01768 21.4152 5.17216L22.3383 5.5567ZM22.3177 5.65965C22.3177 5.6243 22.3247 5.58931 22.3383 5.5567L21.4152 5.17216C21.3508 5.32663 21.3177 5.49232 21.3177 5.65965H22.3177ZM22.3383 5.7626C22.3247 5.72998 22.3177 5.69499 22.3177 5.65965H21.3177C21.3177 5.82698 21.3508 5.99266 21.4152 6.14714L22.3383 5.7626ZM22.3969 5.84972C22.3718 5.82483 22.3519 5.79522 22.3383 5.7626L21.4152 6.14714C21.4795 6.30161 21.5738 6.44182 21.6926 6.55967L22.3969 5.84972ZM22.4863 5.91222C22.4548 5.89912 22.4263 5.8798 22.4025 5.85541L21.687 6.55397C21.8049 6.67478 21.9461 6.77051 22.1019 6.8354L22.4863 5.91222ZM7.55341 20.1982C4.54074 20.1982 2.03986 22.8259 2.03986 25.9026H3.03986C3.03986 23.3422 5.12838 21.1982 7.55341 21.1982V20.1982ZM8.05341 20.7003V20.6982H7.05341V20.7003H8.05341ZM8.32326 20.2003H7.55341V21.2003H8.32326V20.2003ZM7.82326 19.9283V20.7003H8.82326V19.9283H7.82326ZM11.0209 16.7307C9.25809 16.7307 7.82326 18.1655 7.82326 19.9283H8.82326C8.82326 18.7178 9.81038 17.7307 11.0209 17.7307V16.7307ZM12.3297 17.0147C11.9189 16.829 11.4734 16.7322 11.0226 16.7307L11.0192 17.7307C11.3291 17.7317 11.6353 17.7983 11.9178 17.926L12.3297 17.0147ZM13.1632 17.3871L12.3276 17.0138L11.9198 17.9269L12.7554 18.3001L13.1632 17.3871ZM12.7017 16.8294L12.4748 17.7202L13.4438 17.967L13.6708 17.0763L12.7017 16.8294ZM15.48 12.5858C14.108 13.6522 13.1303 15.1455 12.7017 16.8295L13.6708 17.0762C14.0446 15.6076 14.8971 14.3054 16.0937 13.3754L15.48 12.5858ZM20.2782 10.9409C18.5405 10.9406 16.8521 11.5194 15.48 12.5858L16.0937 13.3754C17.2903 12.4454 18.7626 11.9407 20.2781 11.9409L20.2782 10.9409ZM25.8085 13.2374C24.3419 11.7703 22.3535 10.9445 20.279 10.9409L20.2773 11.9409C22.0871 11.9441 23.8218 12.6645 25.1013 13.9444L25.8085 13.2374ZM28.1034 18.7675C28.1004 16.6931 27.2751 14.7045 25.8085 13.2374L25.1013 13.9444C26.3808 15.2243 27.1008 16.9592 27.1034 18.769L28.1034 18.7675ZM28.0162 19.8933C28.0732 19.4704 28.1034 19.1096 28.1034 18.7683H27.1034C27.1034 19.0504 27.0785 19.364 27.0251 19.7598L28.0162 19.8933ZM27.886 20.7794L28.0153 19.8993L27.026 19.7538L26.8966 20.634L27.886 20.7794ZM28.2799 20.2067H27.3913V21.2067H28.2799V20.2067ZM28.1496 21.1454C28.1308 21.136 28.0548 21.0981 27.9874 21.0154C27.9495 20.9689 27.9011 20.8921 27.8826 20.7859C27.8628 20.6725 27.8838 20.5642 27.9284 20.4757C28.003 20.3273 28.1255 20.2666 28.1489 20.2548C28.1904 20.2339 28.2254 20.2238 28.2399 20.2198C28.2713 20.2113 28.2954 20.2083 28.3001 20.2077C28.3086 20.2066 28.3142 20.2062 28.3151 20.2061C28.3154 20.2061 28.3035 20.2067 28.2799 20.2067V21.2067C28.3093 21.2067 28.3505 21.2062 28.3874 21.2035C28.394 21.203 28.4463 21.2001 28.503 21.1846C28.5196 21.1801 28.5561 21.1694 28.5989 21.1478C28.6235 21.1355 28.7467 21.0742 28.8217 20.925C28.8664 20.8362 28.8875 20.7276 28.8677 20.6138C28.849 20.5072 28.8005 20.4301 28.7623 20.3833C28.6943 20.2999 28.6172 20.2612 28.5968 20.251L28.1496 21.1454ZM33.8868 25.9026C33.8868 22.8259 31.3859 20.1982 28.3732 20.1982V21.1982C30.7983 21.1982 32.8868 23.3422 32.8868 25.9026H33.8868ZM28.3732 31.6113C31.3862 31.6113 33.8868 28.9832 33.8868 25.9026H32.8868C32.8868 28.4675 30.798 30.6113 28.3732 30.6113V31.6113ZM7.55341 31.6113H28.3732V30.6113H7.55341V31.6113ZM2.03986 25.9026C2.03986 28.9834 4.54274 31.6113 7.55341 31.6113V30.6113C5.13062 30.6113 3.03986 28.4674 3.03986 25.9026H2.03986Z" fill="url(#paint1_linear_16_1272)" mask="url(#path-1-outside-1_16_1272)"/>
<defs>
<linearGradient id="paint0_linear_16_1272" x1="4.49111" y1="1.03314" x2="16.404" y2="33.2304" gradientUnits="userSpaceOnUse">
<stop stop-color="#E3E6F7"/>
<stop offset="1" stop-color="#595B70"/>
</linearGradient>
<linearGradient id="paint1_linear_16_1272" x1="6.50012" y1="3" x2="17.9644" y2="32.6531" gradientUnits="userSpaceOnUse">
<stop stop-color="#D4D6E8"/>
<stop offset="1" stop-color="#595B6F"/>
</linearGradient>
</defs>
</svg>
