<svg width="40" height="40" viewBox="0 0 40 40" fill="none" xmlns="http://www.w3.org/2000/svg">
<path d="M8.89602 19.454L4.13759 31.3516C4.02059 31.6447 3.97722 31.9619 4.01127 32.2756C4.04532 32.5892 4.15574 32.8898 4.3329 33.1511C4.51006 33.4123 4.74856 33.6262 5.02759 33.7742C5.30661 33.9222 5.61768 33.9997 5.93361 34H35.0645C35.379 34 35.6888 33.9235 35.967 33.7771C36.2453 33.6306 36.4836 33.4187 36.6613 33.1595C36.8391 32.9004 36.9509 32.6019 36.9871 32.29C37.0233 31.978 36.9829 31.6618 36.8693 31.369L28.2634 9.23126C28.1261 8.87905 27.8883 8.5748 27.5796 8.35616C27.2708 8.13752 26.9047 8.01409 26.5264 8.00114C26.1482 7.98818 25.7744 8.08628 25.4514 8.28329C25.1284 8.4803 24.8703 8.76757 24.7091 9.10956L18.6421 22.0358C18.5071 22.3233 18.3032 22.5732 18.0484 22.7633C17.7936 22.9534 17.4959 23.0779 17.1815 23.1257C16.8671 23.1736 16.5457 23.1433 16.2458 23.0376C15.9459 22.9319 15.6768 22.754 15.4621 22.5197L12.1196 18.8687C11.8985 18.6283 11.6201 18.4477 11.3102 18.3438C11.0004 18.2399 10.6692 18.216 10.3476 18.2745C10.0261 18.3329 9.72456 18.4717 9.47123 18.678C9.21791 18.8843 9.02102 19.1512 8.89893 19.454H8.89602Z" stroke="url(#paint0_linear_16_1279)" stroke-width="3"/>
<defs>
<linearGradient id="paint0_linear_16_1279" x1="4" y1="8" x2="20.5" y2="34" gradientUnits="userSpaceOnUse">
<stop stop-color="#B2B5C6"/>
<stop offset="1" stop-color="#595B6F"/>
</linearGradient>
</defs>
</svg>
