<svg width="40" height="40" viewBox="0 0 40 40" fill="none" xmlns="http://www.w3.org/2000/svg">
<path d="M17.4845 7.14216L10.3463 19.9951H16.8806C17.069 19.9952 17.2538 20.0479 17.4153 20.1475C17.5768 20.2471 17.7091 20.3899 17.798 20.5607C17.8869 20.7315 17.9291 20.9239 17.9201 21.1174C17.9111 21.3109 17.8512 21.4983 17.7469 21.6596L13.1366 28.7716L26.4073 17.853H21.0453C20.8391 17.8534 20.6375 17.7907 20.4659 17.6731C20.2943 17.5554 20.1606 17.388 20.0816 17.192C20.0027 16.9961 19.9821 16.7804 20.0224 16.5724C20.0627 16.3644 20.1622 16.1734 20.3082 16.0236L28.9436 7.14216H17.4845ZM14.9358 22.1373H8.55133C8.369 22.1372 8.18988 22.0879 8.0319 21.9943C7.87392 21.9007 7.74261 21.766 7.6511 21.6037C7.5596 21.4415 7.51112 21.2574 7.5105 21.0698C7.50988 20.8823 7.55716 20.6978 7.64759 20.535L15.9769 5.53983C16.0679 5.37589 16.1995 5.23962 16.3582 5.14482C16.5169 5.05002 16.6971 5.00006 16.8806 5H31.457C31.6632 4.99962 31.8648 5.06223 32.0364 5.1799C32.2079 5.29757 32.3417 5.46499 32.4206 5.66094C32.4996 5.85689 32.5202 6.07254 32.4799 6.28057C32.4396 6.48859 32.3401 6.67961 32.1941 6.82941L23.5587 15.7108H29.3746C29.5901 15.7112 29.8001 15.7804 29.9758 15.9087C30.1514 16.0371 30.284 16.2184 30.3553 16.4276C30.4266 16.6367 30.433 16.8635 30.3738 17.0766C30.3145 17.2897 30.1924 17.4786 30.0243 17.6173L9.20101 34.7546C8.27229 35.5194 7.02498 34.3433 7.68508 33.3258L14.9358 22.1373Z" fill="url(#paint0_linear_16_1261)"/>
<defs>
<linearGradient id="paint0_linear_16_1261" x1="10.0735" y1="5" x2="23.5595" y2="33.304" gradientUnits="userSpaceOnUse">
<stop stop-color="#E3E6F7"/>
<stop offset="1" stop-color="#595B70"/>
</linearGradient>
</defs>
</svg>
