<svg width="40" height="40" viewBox="0 0 40 40" fill="none" xmlns="http://www.w3.org/2000/svg">
<path fill-rule="evenodd" clip-rule="evenodd" d="M15.5 3C14.6716 3 14 3.67157 14 4.5V7.5H13C9.96243 7.5 7.5 9.96243 7.5 13V14H4.5C3.67157 14 3 14.6716 3 15.5C3 16.3284 3.67157 17 4.5 17H7.5V23H4.5C3.67157 23 3 23.6716 3 24.5C3 25.3284 3.67157 26 4.5 26H7.5V27C7.5 30.0376 9.96243 32.5 13 32.5H14V35.5C14 36.3284 14.6716 37 15.5 37C16.3284 37 17 36.3284 17 35.5V32.5H23V35.5C23 36.3284 23.6716 37 24.5 37C25.3284 37 26 36.3284 26 35.5V32.5H27C30.0376 32.5 32.5 30.0376 32.5 27V26H35.5C36.3284 26 37 25.3284 37 24.5C37 23.6716 36.3284 23 35.5 23H32.5V17H35.5C36.3284 17 37 16.3284 37 15.5C37 14.6716 36.3284 14 35.5 14H32.5V13C32.5 9.96243 30.0376 7.5 27 7.5H26V4.5C26 3.67157 25.3284 3 24.5 3C23.6716 3 23 3.67157 23 4.5V7.5H17V4.5C17 3.67157 16.3284 3 15.5 3ZM13 10.5C11.6193 10.5 10.5 11.6193 10.5 13V27C10.5 28.3807 11.6193 29.5 13 29.5H27C28.3807 29.5 29.5 28.3807 29.5 27V13C29.5 11.6193 28.3807 10.5 27 10.5H13ZM16 13.5C14.6193 13.5 13.5 14.6193 13.5 16V24C13.5 25.3807 14.6193 26.5 16 26.5H24C25.3807 26.5 26.5 25.3807 26.5 24V16C26.5 14.6193 25.3807 13.5 24 13.5H16ZM16.5 23.5V16.5H23.5V23.5H16.5Z" fill="url(#paint0_linear_16_1237)"/>
<defs>
<linearGradient id="paint0_linear_16_1237" x1="6.5" y1="3" x2="20" y2="37" gradientUnits="userSpaceOnUse">
<stop stop-color="#E3E6F7"/>
<stop offset="1" stop-color="#595B70"/>
</linearGradient>
</defs>
</svg>
