<svg width="67" height="71" viewBox="0 0 67 71" fill="none" xmlns="http://www.w3.org/2000/svg">
<rect width="64" height="64" transform="translate(2 7)" fill="#2D3043"/>
<g opacity="0.1" filter="url(#filter0_f_15_645)">
<rect x="4.99994" y="8" width="58" height="50" fill="url(#paint0_linear_15_645)"/>
</g>
<path d="M41.4769 47.7303C36.7233 45.8989 31.4661 45.8579 26.6845 47.6148L4.38279 55.8091C2.59703 56.4653 2.64968 59.0089 4.46106 59.5906L27.6647 67.0421C31.7336 68.3488 36.1044 68.3829 40.1932 67.14L63.5105 60.052C65.3307 59.4986 65.4231 56.9561 63.6478 56.2721L41.4769 47.7303Z" stroke="#1C1E2D" stroke-width="2"/>
<path d="M27.0294 48.5534C31.5833 46.8802 36.5902 46.9193 41.1174 48.6635L63.2883 57.2053C64.176 57.5473 64.1298 58.8185 63.2196 59.0952L39.9024 66.1832C36.0083 67.367 31.8456 67.3345 27.9704 66.09L4.76682 58.6385C3.86112 58.3477 3.8348 57.0758 4.72768 56.7478L27.0294 48.5534Z" fill="#0F384D"/>
<path d="M64.0571 49.0661L31.9567 35L27.9999 44.0299L64.0571 58.0961L64.0571 49.0661Z" fill="#114A66"/>
<path d="M4.31927 49.0661L36.4197 35L40.3765 44.0299L4.31927 58.0961L4.31927 49.0661Z" fill="#114A66"/>
<path d="M9.99994 48.8986L34.8716 38L37.8829 44.872L18.9999 53L9.99994 48.8986Z" fill="#145778"/>
<path opacity="0.7" d="M35 57.5L3.95669 48.9999L3.95683 58L35 68L35 57.5Z" fill="#145676"/>
<path opacity="0.4" d="M34.8599 57.5L64 49L64 59L34.8599 68L34.8599 57.5Z" fill="#145676"/>
<path d="M57.4771 48.8986L32.6054 38L29.608 44.8403L49.5 53L57.4771 48.8986Z" fill="#145778"/>
<g opacity="0.5" filter="url(#filter1_f_15_645)">
<path d="M15.9999 44H51.9999V62.5L37.546 67.0427C35.5646 67.6654 33.4384 67.6557 31.4627 67.015L15.9999 62V44Z" fill="#2F637C"/>
</g>
<path d="M27.5467 40.7114C31.7591 39.1636 36.3904 39.1998 40.5781 40.8132L61.3932 48.8326L39.4661 55.4981C35.864 56.5931 32.0136 56.563 28.4291 55.4118L6.60886 48.4046L27.5467 40.7114ZM5.22545 47.9604C5.22583 47.9605 5.2262 47.9606 5.22658 47.9607L5.22545 47.9604Z" stroke="url(#paint1_linear_15_645)" stroke-width="3"/>
<path d="M27.2019 39.7727C31.6419 38.1413 36.5236 38.1795 40.9376 39.8801L63.1086 48.4218C63.5524 48.5928 63.5293 49.2285 63.0742 49.3668L39.757 56.4548C35.9602 57.609 31.9016 57.5773 28.1233 56.364L4.91969 48.9125C4.46685 48.767 4.45369 48.1311 4.90012 47.9671L27.2019 39.7727Z" stroke="url(#paint2_linear_15_645)"/>
<g opacity="0.8" filter="url(#filter2_f_15_645)">
<path d="M9.99994 10H56.9999L49.5333 58H17.4666L9.99994 10Z" fill="url(#paint3_linear_15_645)"/>
</g>
<circle opacity="0.4" cx="16.9999" cy="47" r="2" fill="#94DBFD"/>
<circle opacity="0.4" cx="51.5" cy="43.5" r="1.5" fill="#94DBFD"/>
<circle cx="53" cy="32" r="1" fill="#94DBFD"/>
<circle opacity="0.1" cx="55" cy="39" r="2" fill="#94DBFD"/>
<circle opacity="0.1" cx="15.9999" cy="38" r="1" fill="#94DBFD"/>
<circle cx="13.4999" cy="40.5" r="0.5" fill="white"/>
<circle opacity="0.4" cx="11.4999" cy="31.5" r="0.5" fill="white"/>
<circle opacity="0.4" cx="43" cy="50" r="1" fill="white"/>
<mask id="path-22-inside-1_15_645" fill="white">
<path fill-rule="evenodd" clip-rule="evenodd" d="M34.2132 45.2132C42.4975 45.2132 49.2132 38.4975 49.2132 30.2132C49.2132 21.9289 42.4975 15.2132 34.2132 15.2132C25.9289 15.2132 19.2132 21.9289 19.2132 30.2132C19.2132 38.4975 25.9289 45.2132 34.2132 45.2132ZM26.4351 23.8492C26.0446 23.4587 26.0446 22.8255 26.4351 22.435C26.8256 22.0445 27.4588 22.0445 27.8493 22.435L32.9198 27.5055C34.0349 26.9728 35.411 27.1682 36.3346 28.0919C37.2582 29.0155 37.4537 30.3916 36.921 31.5067L38.4559 33.0416C38.8464 33.4321 38.8464 34.0653 38.4559 34.4558C38.0654 34.8464 37.4322 34.8464 37.0417 34.4558L35.5068 32.9209C34.3917 33.4536 33.0156 33.2582 32.092 32.3345C31.1683 31.4109 30.9729 30.0348 31.5056 28.9197L26.4351 23.8492Z"/>
</mask>
<path fill-rule="evenodd" clip-rule="evenodd" d="M34.2132 45.2132C42.4975 45.2132 49.2132 38.4975 49.2132 30.2132C49.2132 21.9289 42.4975 15.2132 34.2132 15.2132C25.9289 15.2132 19.2132 21.9289 19.2132 30.2132C19.2132 38.4975 25.9289 45.2132 34.2132 45.2132ZM26.4351 23.8492C26.0446 23.4587 26.0446 22.8255 26.4351 22.435C26.8256 22.0445 27.4588 22.0445 27.8493 22.435L32.9198 27.5055C34.0349 26.9728 35.411 27.1682 36.3346 28.0919C37.2582 29.0155 37.4537 30.3916 36.921 31.5067L38.4559 33.0416C38.8464 33.4321 38.8464 34.0653 38.4559 34.4558C38.0654 34.8464 37.4322 34.8464 37.0417 34.4558L35.5068 32.9209C34.3917 33.4536 33.0156 33.2582 32.092 32.3345C31.1683 31.4109 30.9729 30.0348 31.5056 28.9197L26.4351 23.8492Z" fill="url(#paint4_linear_15_645)"/>
<path d="M34.2132 45.2132L34.2132 46.2132L34.2132 45.2132ZM34.2132 15.2132L34.2132 16.2132L34.2132 15.2132ZM19.2132 30.2132L18.2132 30.2132L19.2132 30.2132ZM26.4351 23.8492L25.728 24.5563L26.4351 23.8492ZM27.8493 22.435L27.1422 23.1421L27.8493 22.435ZM32.9198 27.5055L32.2127 28.2126L32.7127 28.7126L33.3508 28.4078L32.9198 27.5055ZM36.921 31.5067L36.0187 31.0757L35.7138 31.7138L36.2139 32.2138L36.921 31.5067ZM35.5068 32.9209L36.2139 32.2138L35.7138 31.7138L35.0757 32.0186L35.5068 32.9209ZM31.5056 28.9197L32.4079 29.3507L32.7127 28.7126L32.2127 28.2126L31.5056 28.9197ZM48.2132 30.2132C48.2132 37.9452 41.9452 44.2132 34.2132 44.2132L34.2132 46.2132C43.0498 46.2132 50.2132 39.0498 50.2132 30.2132H48.2132ZM34.2132 16.2132C41.9452 16.2132 48.2132 22.4812 48.2132 30.2132H50.2132C50.2132 21.3766 43.0498 14.2132 34.2132 14.2132L34.2132 16.2132ZM20.2132 30.2132C20.2132 22.4812 26.4812 16.2132 34.2132 16.2132L34.2132 14.2132C25.3766 14.2132 18.2132 21.3766 18.2132 30.2132H20.2132ZM34.2132 44.2132C26.4812 44.2132 20.2132 37.9452 20.2132 30.2132H18.2132C18.2132 39.0498 25.3766 46.2132 34.2132 46.2132L34.2132 44.2132ZM25.728 21.7279C24.947 22.509 24.947 23.7753 25.728 24.5563L27.1422 23.1421L25.728 21.7279ZM28.5564 21.7279C27.7754 20.9469 26.5091 20.9469 25.728 21.7279L27.1422 23.1421L28.5564 21.7279ZM33.6269 26.7984L28.5564 21.7279L27.1422 23.1421L32.2127 28.2126L33.6269 26.7984ZM37.0417 27.3848C35.8091 26.1522 33.9743 25.8935 32.4887 26.6031L33.3508 28.4078C34.0955 28.0521 35.0128 28.1843 35.6275 28.799L37.0417 27.3848ZM37.8233 31.9378C38.533 30.4522 38.2743 28.6174 37.0417 27.3848L35.6275 28.799C36.2422 29.4136 36.3744 30.3309 36.0187 31.0757L37.8233 31.9378ZM39.163 32.3345L37.6281 30.7996L36.2139 32.2138L37.7488 33.7487L39.163 32.3345ZM39.163 35.1629C39.9441 34.3819 39.9441 33.1156 39.163 32.3345L37.7488 33.7487L39.163 35.1629ZM36.3346 35.1629C37.1157 35.944 38.382 35.944 39.163 35.1629L37.7488 33.7487L36.3346 35.1629ZM34.7997 33.628L36.3346 35.1629L37.7488 33.7487L36.2139 32.2138L34.7997 33.628ZM31.3849 33.0416C32.6175 34.2742 34.4523 34.5329 35.9378 33.8232L35.0757 32.0186C34.331 32.3743 33.4137 32.2421 32.7991 31.6274L31.3849 33.0416ZM30.6032 28.4886C29.8936 29.9742 30.1522 31.809 31.3849 33.0416L32.7991 31.6274C32.1844 31.0128 32.0521 30.0954 32.4079 29.3507L30.6032 28.4886ZM25.728 24.5563L30.7985 29.6268L32.2127 28.2126L27.1422 23.1421L25.728 24.5563Z" fill="url(#paint5_linear_15_645)" mask="url(#path-22-inside-1_15_645)"/>
<defs>
<filter id="filter0_f_15_645" x="0.999939" y="4" width="66.0001" height="58" filterUnits="userSpaceOnUse" color-interpolation-filters="sRGB">
<feFlood flood-opacity="0" result="BackgroundImageFix"/>
<feBlend mode="normal" in="SourceGraphic" in2="BackgroundImageFix" result="shape"/>
<feGaussianBlur stdDeviation="2" result="effect1_foregroundBlur_15_645"/>
</filter>
<filter id="filter1_f_15_645" x="14.9999" y="43" width="38.0001" height="25.5027" filterUnits="userSpaceOnUse" color-interpolation-filters="sRGB">
<feFlood flood-opacity="0" result="BackgroundImageFix"/>
<feBlend mode="normal" in="SourceGraphic" in2="BackgroundImageFix" result="shape"/>
<feGaussianBlur stdDeviation="0.5" result="effect1_foregroundBlur_15_645"/>
</filter>
<filter id="filter2_f_15_645" x="-6.10352e-05" y="0" width="67.0001" height="68" filterUnits="userSpaceOnUse" color-interpolation-filters="sRGB">
<feFlood flood-opacity="0" result="BackgroundImageFix"/>
<feBlend mode="normal" in="SourceGraphic" in2="BackgroundImageFix" result="shape"/>
<feGaussianBlur stdDeviation="5" result="effect1_foregroundBlur_15_645"/>
</filter>
<linearGradient id="paint0_linear_15_645" x1="33.9999" y1="8" x2="33.9999" y2="58" gradientUnits="userSpaceOnUse">
<stop stop-color="#1683B4" stop-opacity="0"/>
<stop offset="1" stop-color="#2294BD"/>
</linearGradient>
<linearGradient id="paint1_linear_15_645" x1="31.6052" y1="35.2679" x2="32.2884" y2="58.7562" gradientUnits="userSpaceOnUse">
<stop stop-color="#144F86"/>
<stop offset="0.627106" stop-color="#1687B7"/>
<stop offset="1" stop-color="#75F0E1"/>
</linearGradient>
<linearGradient id="paint2_linear_15_645" x1="31.6052" y1="35.2679" x2="32.2884" y2="58.7562" gradientUnits="userSpaceOnUse">
<stop offset="0.72139" stop-color="white" stop-opacity="0"/>
<stop offset="1" stop-color="white"/>
</linearGradient>
<linearGradient id="paint3_linear_15_645" x1="33.4999" y1="10" x2="33.4999" y2="58" gradientUnits="userSpaceOnUse">
<stop stop-color="#1683B4" stop-opacity="0"/>
<stop offset="1" stop-color="#2294BD"/>
</linearGradient>
<linearGradient id="paint4_linear_15_645" x1="21.8221" y1="15.2132" x2="50.0626" y2="38.7197" gradientUnits="userSpaceOnUse">
<stop offset="0.0962076" stop-color="#D8E6FA"/>
<stop offset="1" stop-color="#38B7FF"/>
</linearGradient>
<linearGradient id="paint5_linear_15_645" x1="34.2134" y1="15.2132" x2="44.9281" y2="40.9563" gradientUnits="userSpaceOnUse">
<stop stop-color="white"/>
<stop offset="1" stop-color="#8AD5FF"/>
</linearGradient>
</defs>
</svg>
