<svg width="67" height="71" viewBox="0 0 67 71" fill="none" xmlns="http://www.w3.org/2000/svg">
<rect width="64" height="64" transform="translate(2 7)" fill="#2D3043"/>
<g opacity="0.1" filter="url(#filter0_f_15_909)">
<rect x="4.99994" y="8" width="58" height="50" fill="url(#paint0_linear_15_909)"/>
</g>
<path d="M41.4768 47.7303C36.7232 45.8989 31.4661 45.8579 26.6845 47.6148L4.38273 55.8091C2.59697 56.4653 2.64962 59.0089 4.461 59.5906L27.6646 67.0421C31.7336 68.3488 36.1043 68.3829 40.1932 67.14L63.5104 60.052C65.3307 59.4986 65.423 56.9561 63.6478 56.2721L41.4768 47.7303Z" stroke="#1C1E2D" stroke-width="2"/>
<path d="M27.0294 48.5534C31.5832 46.8802 36.5901 46.9193 41.1173 48.6635L63.2882 57.2053C64.1759 57.5473 64.1297 58.8185 63.2196 59.0952L39.9023 66.1832C36.0082 67.367 31.8456 67.3345 27.9704 66.09L4.76675 58.6385C3.86106 58.3477 3.83474 57.0758 4.72762 56.7478L27.0294 48.5534Z" fill="#0F384D"/>
<path d="M64.0571 49.0661L31.9567 35L27.9998 44.0299L64.0571 58.0961L64.0571 49.0661Z" fill="#114A66"/>
<path d="M4.31927 49.0661L36.4197 35L40.3765 44.0299L4.31927 58.0961L4.31927 49.0661Z" fill="#114A66"/>
<path d="M9.99994 48.8986L34.8716 38L37.8829 44.872L18.9999 53L9.99994 48.8986Z" fill="#145778"/>
<path opacity="0.7" d="M34.9999 57.5L3.95663 48.9999L3.95677 58L34.9999 68L34.9999 57.5Z" fill="#145676"/>
<path opacity="0.4" d="M34.8598 57.5L63.9999 49L63.9999 59L34.8598 68L34.8598 57.5Z" fill="#145676"/>
<path d="M57.477 48.8986L32.6053 38L29.608 44.8403L49.4999 53L57.477 48.8986Z" fill="#145778"/>
<g opacity="0.5" filter="url(#filter1_f_15_909)">
<path d="M15.9999 44H51.9999V62.5L37.546 67.0427C35.5646 67.6654 33.4384 67.6557 31.4627 67.015L15.9999 62V44Z" fill="#2F637C"/>
</g>
<path d="M27.5467 40.7114C31.759 39.1636 36.3904 39.1998 40.578 40.8132L61.3931 48.8326L39.4661 55.4981C35.864 56.5931 32.0136 56.563 28.429 55.4118L6.6088 48.4046L27.5467 40.7114ZM5.22539 47.9604C5.22577 47.9605 5.22614 47.9606 5.22652 47.9607L5.22539 47.9604Z" stroke="url(#paint1_linear_15_909)" stroke-width="3"/>
<path d="M27.2018 39.7727C31.6418 38.1413 36.5235 38.1795 40.9375 39.8801L63.1085 48.4218C63.5523 48.5928 63.5292 49.2285 63.0742 49.3668L39.7569 56.4548C35.9601 57.609 31.9016 57.5773 28.1233 56.364L4.91963 48.9125C4.46678 48.767 4.45363 48.1311 4.90006 47.9671L27.2018 39.7727Z" stroke="url(#paint2_linear_15_909)"/>
<g opacity="0.8" filter="url(#filter2_f_15_909)">
<path d="M9.99994 10H56.9999L49.5333 58H17.4666L9.99994 10Z" fill="url(#paint3_linear_15_909)"/>
</g>
<circle opacity="0.4" cx="16.9999" cy="47" r="2" fill="#94DBFD"/>
<circle opacity="0.4" cx="51.4999" cy="43.5" r="1.5" fill="#94DBFD"/>
<circle cx="52.9999" cy="32" r="1" fill="#94DBFD"/>
<circle opacity="0.1" cx="54.9999" cy="39" r="2" fill="#94DBFD"/>
<circle opacity="0.1" cx="15.9999" cy="38" r="1" fill="#94DBFD"/>
<circle cx="13.4999" cy="40.5" r="0.5" fill="white"/>
<circle opacity="0.4" cx="11.4999" cy="31.5" r="0.5" fill="white"/>
<circle opacity="0.4" cx="42.9999" cy="50" r="1" fill="white"/>
<mask id="path-22-inside-1_15_909" fill="white">
<path fill-rule="evenodd" clip-rule="evenodd" d="M48.5891 28.8633C48.5891 36.5198 42.3823 42.7266 34.7258 42.7266C32.5506 42.7266 32.5505 40.882 32.5503 38.6128C32.5502 36.5987 32.55 34.2502 31.029 32.5602C29.412 30.7635 26.8712 30.7265 24.7343 30.6954C22.5963 30.6643 20.8625 30.6391 20.8625 28.8633C20.8625 21.2068 27.0694 15 34.7258 15C42.3823 15 48.5891 21.2068 48.5891 28.8633ZM20.154 42.7574C20.0025 42.7574 23.8138 45.5581 20.1894 42.75L20.154 42.7574ZM26.2538 41.4943L20.1894 42.75L19.9999 42.6034L21.1706 36.257C21.6327 34.5626 23.3271 33.4844 25.0215 33.4844C27.3321 33.4844 29.1805 35.3328 29.1805 37.6434C29.1805 39.4918 27.9482 41.0322 26.2538 41.4943ZM38.79 30.7014C38.8797 30.7518 38.9624 30.7733 39.0452 30.7733C39.2108 30.7733 39.3694 30.6942 39.4729 30.5575C39.5832 30.4279 39.6246 30.2552 39.597 30.0825L39.3349 28.4779C39.3211 28.3771 39.3487 28.2764 39.4246 28.2044L40.5351 27.0675C40.6868 26.9092 40.742 26.6789 40.673 26.463C40.604 26.2543 40.4316 26.1032 40.2178 26.0673L38.6727 25.8298C38.5762 25.8154 38.4934 25.7578 38.4451 25.6643L37.7554 24.1963C37.6588 23.9948 37.4657 23.8725 37.2519 23.8725C37.038 23.8725 36.8449 23.9948 36.7484 24.1963L36.0586 25.6643C36.0172 25.7506 35.9276 25.8154 35.831 25.8298L34.286 26.0672C34.0721 26.1032 33.8997 26.2543 33.8307 26.4702C33.7618 26.6861 33.8169 26.9164 33.9756 27.0747L35.093 28.2044C35.1619 28.2764 35.1964 28.3771 35.1826 28.4779L34.9136 30.0897C34.886 30.2624 34.9274 30.4351 35.0378 30.5647C35.1482 30.6942 35.3068 30.7733 35.4723 30.7733C35.5689 30.7733 35.6517 30.7518 35.7344 30.7014L37.1208 29.9314C37.1553 29.917 37.2105 29.9027 37.2588 29.9027C37.3139 29.9027 37.3622 29.917 37.3967 29.9386L38.79 30.7014Z"/>
</mask>
<path fill-rule="evenodd" clip-rule="evenodd" d="M48.5891 28.8633C48.5891 36.5198 42.3823 42.7266 34.7258 42.7266C32.5506 42.7266 32.5505 40.882 32.5503 38.6128C32.5502 36.5987 32.55 34.2502 31.029 32.5602C29.412 30.7635 26.8712 30.7265 24.7343 30.6954C22.5963 30.6643 20.8625 30.6391 20.8625 28.8633C20.8625 21.2068 27.0694 15 34.7258 15C42.3823 15 48.5891 21.2068 48.5891 28.8633ZM20.154 42.7574C20.0025 42.7574 23.8138 45.5581 20.1894 42.75L20.154 42.7574ZM26.2538 41.4943L20.1894 42.75L19.9999 42.6034L21.1706 36.257C21.6327 34.5626 23.3271 33.4844 25.0215 33.4844C27.3321 33.4844 29.1805 35.3328 29.1805 37.6434C29.1805 39.4918 27.9482 41.0322 26.2538 41.4943ZM38.79 30.7014C38.8797 30.7518 38.9624 30.7733 39.0452 30.7733C39.2108 30.7733 39.3694 30.6942 39.4729 30.5575C39.5832 30.4279 39.6246 30.2552 39.597 30.0825L39.3349 28.4779C39.3211 28.3771 39.3487 28.2764 39.4246 28.2044L40.5351 27.0675C40.6868 26.9092 40.742 26.6789 40.673 26.463C40.604 26.2543 40.4316 26.1032 40.2178 26.0673L38.6727 25.8298C38.5762 25.8154 38.4934 25.7578 38.4451 25.6643L37.7554 24.1963C37.6588 23.9948 37.4657 23.8725 37.2519 23.8725C37.038 23.8725 36.8449 23.9948 36.7484 24.1963L36.0586 25.6643C36.0172 25.7506 35.9276 25.8154 35.831 25.8298L34.286 26.0672C34.0721 26.1032 33.8997 26.2543 33.8307 26.4702C33.7618 26.6861 33.8169 26.9164 33.9756 27.0747L35.093 28.2044C35.1619 28.2764 35.1964 28.3771 35.1826 28.4779L34.9136 30.0897C34.886 30.2624 34.9274 30.4351 35.0378 30.5647C35.1482 30.6942 35.3068 30.7733 35.4723 30.7733C35.5689 30.7733 35.6517 30.7518 35.7344 30.7014L37.1208 29.9314C37.1553 29.917 37.2105 29.9027 37.2588 29.9027C37.3139 29.9027 37.3622 29.917 37.3967 29.9386L38.79 30.7014Z" fill="url(#paint4_linear_15_909)"/>
<path d="M32.5503 38.6128L33.5503 38.6127L32.5503 38.6128ZM31.029 32.5602L31.7723 31.8912L31.029 32.5602ZM24.7343 30.6954L24.7489 29.6955L24.7343 30.6954ZM20.154 42.7574V43.7574H20.2564L20.3568 43.7366L20.154 42.7574ZM26.2538 41.4943L26.4566 42.4735L26.487 42.4672L26.5169 42.4591L26.2538 41.4943ZM19.9999 42.6034L19.0165 42.4219L18.906 43.0211L19.3878 43.3941L19.9999 42.6034ZM21.1706 36.257L20.2059 35.9939L20.1948 36.0344L20.1872 36.0756L21.1706 36.257ZM38.79 30.7014L39.2798 29.8295L39.2702 29.8242L38.79 30.7014ZM39.4729 30.5575L38.7117 29.9089L38.6929 29.931L38.6754 29.9541L39.4729 30.5575ZM39.597 30.0825L40.5845 29.9248L40.5839 29.9213L39.597 30.0825ZM39.3349 28.4779L38.3441 28.6135L38.3459 28.6263L38.348 28.6391L39.3349 28.4779ZM39.4246 28.2044L40.1127 28.93L40.1266 28.9169L40.14 28.9032L39.4246 28.2044ZM40.5351 27.0675L41.2505 27.7663L41.257 27.7594L40.5351 27.0675ZM40.673 26.463L41.6256 26.1587L41.6225 26.1492L40.673 26.463ZM40.2178 26.0673L40.3837 25.0811L40.3767 25.0799L40.3697 25.0789L40.2178 26.0673ZM38.6727 25.8298L38.8247 24.8414L38.8202 24.8407L38.6727 25.8298ZM38.4451 25.6643L37.5401 26.0895L37.548 26.1064L37.5565 26.1229L38.4451 25.6643ZM37.7554 24.1963L38.6605 23.771L38.6572 23.7641L37.7554 24.1963ZM36.7484 24.1963L35.8465 23.7641L35.8433 23.7711L36.7484 24.1963ZM36.0586 25.6643L36.9604 26.0965L36.9637 26.0895L36.0586 25.6643ZM35.831 25.8298L35.6836 24.8407L35.6791 24.8414L35.831 25.8298ZM34.286 26.0672L34.1341 25.0789L34.127 25.0799L34.12 25.0811L34.286 26.0672ZM33.8307 26.4702L34.7833 26.7746L34.7833 26.7745L33.8307 26.4702ZM33.9756 27.0747L34.6866 26.3715L34.6819 26.3668L33.9756 27.0747ZM35.093 28.2044L35.8148 27.5124L35.8094 27.5068L35.804 27.5012L35.093 28.2044ZM35.1826 28.4779L36.169 28.6425L36.1714 28.628L36.1734 28.6135L35.1826 28.4779ZM34.9136 30.0897L33.9272 29.9251L33.9261 29.932L34.9136 30.0897ZM35.0378 30.5647L34.2766 31.2132L34.2766 31.2133L35.0378 30.5647ZM35.7344 30.7014L35.2489 29.8272L35.2315 29.8368L35.2146 29.8471L35.7344 30.7014ZM37.1208 29.9314L36.7357 29.0086L36.6841 29.0301L36.6353 29.0572L37.1208 29.9314ZM37.3967 29.9386L36.8661 30.7863L36.8909 30.8018L36.9165 30.8158L37.3967 29.9386ZM34.7258 43.7266C42.9346 43.7266 49.5891 37.0721 49.5891 28.8633H47.5891C47.5891 35.9675 41.83 41.7266 34.7258 41.7266V43.7266ZM31.5503 38.6129C31.5504 39.6781 31.5366 40.9147 31.8831 41.8636C32.0711 42.3784 32.3842 42.8744 32.9053 43.2294C33.4216 43.5811 34.0427 43.7266 34.7258 43.7266V41.7266C34.3214 41.7266 34.1268 41.6415 34.0313 41.5765C33.9405 41.5146 33.8458 41.4076 33.7618 41.1776C33.5644 40.6369 33.5504 39.8167 33.5503 38.6127L31.5503 38.6129ZM30.2857 33.2291C31.5071 34.5863 31.5502 36.5149 31.5503 38.6129L33.5503 38.6127C33.5502 36.6826 33.5929 33.9141 31.7723 31.8912L30.2857 33.2291ZM24.7198 31.6953C25.8056 31.7111 26.8749 31.73 27.8662 31.9433C28.8387 32.1527 29.6611 32.5352 30.2857 33.2291L31.7723 31.8912C30.7798 30.7885 29.5234 30.2542 28.287 29.9881C27.0695 29.726 25.8 29.7108 24.7489 29.6955L24.7198 31.6953ZM19.8625 28.8633C19.8625 29.4751 20.0149 30.041 20.3768 30.5073C20.732 30.9652 21.2117 31.227 21.6822 31.3828C22.5626 31.6746 23.7118 31.6806 24.7198 31.6953L24.7489 29.6955C23.6189 29.6791 22.8322 29.657 22.3112 29.4843C22.081 29.4081 21.9936 29.3286 21.957 29.2814C21.9269 29.2426 21.8625 29.1394 21.8625 28.8633H19.8625ZM34.7258 14C26.5171 14 19.8625 20.6545 19.8625 28.8633H21.8625C21.8625 21.7591 27.6216 16 34.7258 16V14ZM49.5891 28.8633C49.5891 20.6545 42.9346 14 34.7258 14V16C41.83 16 47.5891 21.7591 47.5891 28.8633H49.5891ZM20.154 41.7574C20.071 41.7574 19.9047 41.7671 19.719 41.8561C19.6205 41.9033 19.5147 41.9739 19.4191 42.0763C19.3224 42.18 19.252 42.2994 19.2077 42.424C19.1223 42.6638 19.1497 42.8709 19.1733 42.9778C19.1981 43.09 19.2369 43.174 19.2601 43.2195C19.3062 43.3099 19.3562 43.374 19.3763 43.3991C19.402 43.4313 19.4256 43.4572 19.4419 43.4744C19.499 43.5349 19.5644 43.5924 19.6085 43.6303C19.7093 43.717 19.8464 43.827 19.9889 43.9386C20.2779 44.1648 20.6365 44.4344 20.8864 44.6159C20.9996 44.6981 21.124 44.7868 21.2054 44.8371C21.2187 44.8453 21.2381 44.8571 21.2609 44.8697C21.2755 44.8778 21.3267 44.9061 21.3944 44.9323C21.4217 44.9427 21.5085 44.9758 21.6253 44.9913C21.6838 44.999 21.799 45.0095 21.9409 44.983C22.0876 44.9557 22.3241 44.8757 22.5171 44.6509C22.7163 44.4187 22.7613 44.1582 22.7581 43.9816C22.7553 43.8188 22.7132 43.6952 22.6896 43.6346C22.6425 43.514 22.5824 43.4312 22.565 43.4073C22.5199 43.3453 22.4765 43.3011 22.4648 43.2891C22.4458 43.2697 22.4286 43.2534 22.4164 43.2421C22.3916 43.2191 22.3654 43.1963 22.3415 43.1759C22.1644 43.0244 21.7015 42.6565 20.8019 41.9596L19.577 43.5405C20.4896 44.2476 20.9093 44.5827 21.0417 44.6959C21.0565 44.7085 21.06 44.7119 21.0567 44.7089C21.0553 44.7075 21.0467 44.6995 21.0344 44.687C21.0294 44.6818 20.9907 44.6429 20.9484 44.5849C20.9324 44.5629 20.8733 44.4816 20.8266 44.3622C20.8032 44.3023 20.7613 44.1792 20.7585 44.0169C20.7553 43.8406 20.8002 43.5805 20.9992 43.3485C21.1919 43.1239 21.4282 43.0442 21.5743 43.0169C21.7158 42.9905 21.8305 43.001 21.8883 43.0086C22.0037 43.024 22.0889 43.0565 22.1139 43.0661C22.1772 43.0906 22.2223 43.1159 22.2291 43.1197C22.2442 43.128 22.2543 43.1342 22.2566 43.1357C22.2611 43.1384 22.247 43.1296 22.2046 43.0999C22.1672 43.0737 22.1189 43.0392 22.0616 42.9976C21.8308 42.83 21.4914 42.5749 21.2217 42.3637C21.0848 42.2565 20.9773 42.1697 20.9129 42.1142C20.8742 42.081 20.8769 42.0811 20.8966 42.1019C20.9035 42.1092 20.9193 42.1263 20.939 42.1509C20.9529 42.1684 20.9985 42.226 21.0419 42.3111C21.0638 42.354 21.1018 42.4358 21.1261 42.546C21.1493 42.6509 21.1767 42.8563 21.0918 43.0948C21.0477 43.2187 20.9777 43.3376 20.8814 43.4408C20.7863 43.5427 20.6811 43.6129 20.5832 43.6597C20.399 43.748 20.2346 43.7574 20.154 43.7574V41.7574ZM19.9866 41.7708L19.9512 41.7782L20.3568 43.7366L20.3922 43.7293L19.9866 41.7708ZM20.3922 43.7293L26.4566 42.4735L26.0511 40.5151L19.9867 41.7708L20.3922 43.7293ZM19.3878 43.3941L19.5773 43.5408L20.8016 41.9593L20.6121 41.8126L19.3878 43.3941ZM20.1872 36.0756L19.0165 42.4219L20.9833 42.7848L22.154 36.4385L20.1872 36.0756ZM25.0215 32.4844C22.9544 32.4844 20.806 33.7934 20.2059 35.9939L22.1354 36.5202C22.4594 35.3319 23.6999 34.4844 25.0215 34.4844V32.4844ZM30.1805 37.6434C30.1805 34.7805 27.8844 32.4844 25.0215 32.4844V34.4844C26.7798 34.4844 28.1805 35.8851 28.1805 37.6434H30.1805ZM26.5169 42.4591C28.6386 41.8804 30.1805 39.9508 30.1805 37.6434H28.1805C28.1805 39.0328 27.2578 40.1839 25.9907 40.5295L26.5169 42.4591ZM39.0452 29.7733C39.093 29.7733 39.1414 29.7799 39.1869 29.7925C39.2313 29.8048 39.2627 29.82 39.2798 29.8295L38.3002 31.5732C38.5221 31.6979 38.772 31.7733 39.0452 31.7733V29.7733ZM38.6754 29.9541C38.7567 29.8466 38.8905 29.7733 39.0452 29.7733V31.7733C39.531 31.7733 39.9821 31.5418 40.2703 31.1609L38.6754 29.9541ZM38.6095 30.2403C38.5965 30.1588 38.6106 30.0276 38.7117 29.9089L40.234 31.206C40.5558 30.8283 40.6527 30.3517 40.5845 29.9248L38.6095 30.2403ZM38.348 28.6391L38.6101 30.2437L40.5839 29.9213L40.3218 28.3167L38.348 28.6391ZM38.7365 27.4788C38.3909 27.8065 38.2939 28.2462 38.3441 28.6135L40.3257 28.3423C40.3484 28.508 40.3065 28.7462 40.1127 28.93L38.7365 27.4788ZM39.8197 26.3687L38.7092 27.5057L40.14 28.9032L41.2504 27.7662L39.8197 26.3687ZM39.7205 26.7674C39.6779 26.6341 39.711 26.482 39.8131 26.3755L41.257 27.7594C41.6626 27.3363 41.8061 26.7237 41.6256 26.1587L39.7205 26.7674ZM40.0518 27.0534C39.8885 27.0259 39.7672 26.9089 39.7235 26.7769L41.6225 26.1492C41.4409 25.5998 40.9747 25.1806 40.3837 25.0811L40.0518 27.0534ZM38.5208 26.8182L40.0659 27.0556L40.3697 25.0789L38.8247 24.8414L38.5208 26.8182ZM37.5565 26.1229C37.7509 26.4995 38.1078 26.7566 38.5253 26.8189L38.8202 24.8407C39.0445 24.8741 39.236 25.0162 39.3338 25.2057L37.5565 26.1229ZM36.8503 24.6216L37.5401 26.0895L39.3502 25.239L38.6605 23.7711L36.8503 24.6216ZM37.2519 24.8725C37.0689 24.8725 36.9181 24.7631 36.8536 24.6285L38.6572 23.7641C38.3996 23.2266 37.8625 22.8725 37.2519 22.8725V24.8725ZM37.6501 24.6285C37.5856 24.7631 37.4349 24.8725 37.2519 24.8725V22.8725C36.6412 22.8725 36.1042 23.2266 35.8466 23.7641L37.6501 24.6285ZM36.9637 26.0895L37.6534 24.6216L35.8433 23.7711L35.1535 25.239L36.9637 26.0895ZM35.9784 26.8189C36.3911 26.7573 36.7703 26.4931 36.9604 26.0965L35.1568 25.2321C35.2146 25.1115 35.2963 25.0241 35.3781 24.9647C35.4601 24.9052 35.5629 24.8587 35.6836 24.8407L35.9784 26.8189ZM34.4379 27.0556L35.9829 26.8182L35.6791 24.8414L34.1341 25.0789L34.4379 27.0556ZM34.7833 26.7745C34.7427 26.9017 34.6211 27.0249 34.4519 27.0534L34.12 25.0811C33.5232 25.1815 33.0567 25.607 32.8782 26.1659L34.7833 26.7745ZM34.6819 26.3668C34.7923 26.4769 34.8267 26.6386 34.7833 26.7746L32.8782 26.1659C32.6968 26.7335 32.8416 27.3558 33.2692 27.7825L34.6819 26.3668ZM35.804 27.5012L34.6866 26.3715L33.2646 27.7779L34.382 28.9076L35.804 27.5012ZM36.1734 28.6135C36.2299 28.2012 36.0886 27.798 35.8148 27.5124L34.3711 28.8964C34.2353 28.7548 34.163 28.5531 34.1919 28.3422L36.1734 28.6135ZM35.9 30.2544L36.169 28.6425L34.1963 28.3133L33.9273 29.9251L35.9 30.2544ZM35.799 29.9162C35.9001 30.0348 35.9141 30.166 35.9011 30.2475L33.9261 29.932C33.858 30.3589 33.9548 30.8355 34.2766 31.2132L35.799 29.9162ZM35.4723 29.7733C35.6274 29.7733 35.738 29.8446 35.7989 29.9161L34.2766 31.2133C34.5583 31.5438 34.9862 31.7733 35.4723 31.7733V29.7733ZM35.2146 29.8471C35.2477 29.827 35.2927 29.8058 35.3468 29.7911C35.4002 29.7767 35.4446 29.7733 35.4723 29.7733V31.7733C35.7403 31.7733 36.005 31.7074 36.2543 31.5556L35.2146 29.8471ZM36.6353 29.0572L35.2489 29.8272L36.22 31.5756L37.6063 30.8057L36.6353 29.0572ZM37.2588 28.9027C37.0497 28.9027 36.8627 28.9556 36.7357 29.0086L37.506 30.8543C37.464 30.8718 37.43 30.8815 37.4028 30.8876C37.3767 30.8934 37.3271 30.9027 37.2588 30.9027V28.9027ZM37.9273 29.091C37.716 28.9588 37.4796 28.9027 37.2588 28.9027V30.9027C37.1483 30.9027 37.0084 30.8753 36.8661 30.7863L37.9273 29.091ZM39.2702 29.8242L37.8769 29.0615L36.9165 30.8158L38.3098 31.5786L39.2702 29.8242Z" fill="url(#paint5_linear_15_909)" mask="url(#path-22-inside-1_15_909)"/>
<defs>
<filter id="filter0_f_15_909" x="0.999939" y="4" width="66" height="58" filterUnits="userSpaceOnUse" color-interpolation-filters="sRGB">
<feFlood flood-opacity="0" result="BackgroundImageFix"/>
<feBlend mode="normal" in="SourceGraphic" in2="BackgroundImageFix" result="shape"/>
<feGaussianBlur stdDeviation="2" result="effect1_foregroundBlur_15_909"/>
</filter>
<filter id="filter1_f_15_909" x="14.9999" y="43" width="38" height="25.5027" filterUnits="userSpaceOnUse" color-interpolation-filters="sRGB">
<feFlood flood-opacity="0" result="BackgroundImageFix"/>
<feBlend mode="normal" in="SourceGraphic" in2="BackgroundImageFix" result="shape"/>
<feGaussianBlur stdDeviation="0.5" result="effect1_foregroundBlur_15_909"/>
</filter>
<filter id="filter2_f_15_909" x="-6.10352e-05" y="0" width="67" height="68" filterUnits="userSpaceOnUse" color-interpolation-filters="sRGB">
<feFlood flood-opacity="0" result="BackgroundImageFix"/>
<feBlend mode="normal" in="SourceGraphic" in2="BackgroundImageFix" result="shape"/>
<feGaussianBlur stdDeviation="5" result="effect1_foregroundBlur_15_909"/>
</filter>
<linearGradient id="paint0_linear_15_909" x1="33.9999" y1="8" x2="33.9999" y2="58" gradientUnits="userSpaceOnUse">
<stop stop-color="#1683B4" stop-opacity="0"/>
<stop offset="1" stop-color="#2294BD"/>
</linearGradient>
<linearGradient id="paint1_linear_15_909" x1="31.6051" y1="35.2679" x2="32.2883" y2="58.7562" gradientUnits="userSpaceOnUse">
<stop stop-color="#144F86"/>
<stop offset="0.627106" stop-color="#1687B7"/>
<stop offset="1" stop-color="#75F0E1"/>
</linearGradient>
<linearGradient id="paint2_linear_15_909" x1="31.6051" y1="35.2679" x2="32.2883" y2="58.7562" gradientUnits="userSpaceOnUse">
<stop offset="0.72139" stop-color="white" stop-opacity="0"/>
<stop offset="1" stop-color="white"/>
</linearGradient>
<linearGradient id="paint3_linear_15_909" x1="33.4999" y1="10" x2="33.4999" y2="58" gradientUnits="userSpaceOnUse">
<stop stop-color="#1683B4" stop-opacity="0"/>
<stop offset="1" stop-color="#2294BD"/>
</linearGradient>
<linearGradient id="paint4_linear_15_909" x1="22.486" y1="15" x2="49.7119" y2="37.3409" gradientUnits="userSpaceOnUse">
<stop offset="0.0962076" stop-color="#D8E6FA"/>
<stop offset="1" stop-color="#38B7FF"/>
</linearGradient>
<linearGradient id="paint5_linear_15_909" x1="34.2945" y1="15" x2="44.7562" y2="39.7791" gradientUnits="userSpaceOnUse">
<stop stop-color="white"/>
<stop offset="1" stop-color="#8AD5FF"/>
</linearGradient>
</defs>
</svg>
